<svg width="76" height="64" viewBox="0 0 76 64" fill="none" xmlns="http://www.w3.org/2000/svg">
<g clip-path="url(#clip0_136_118)">
<path d="M49.9348 30.0783C46.1084 23.3891 37.6978 21.1615 31.3001 25.2228C25.0619 29.1814 23.1749 37.4905 27.0244 43.9869C28.7652 46.987 31.5934 49.2053 34.925 50.1836C37.4022 50.8995 39.5009 52.5541 40.7728 54.794L41.541 56.1352C41.6854 56.3961 41.8807 56.6255 42.1154 56.8099C42.3501 56.9942 42.6193 57.1297 42.9073 57.2084C43.1953 57.2872 43.4962 57.3075 43.7922 57.2682C44.0882 57.2289 44.3733 57.1308 44.6307 56.9797L52.4536 52.3149C52.9719 51.9938 53.3444 51.4837 53.4921 50.8929C53.6399 50.3021 53.5512 49.6771 53.2449 49.1505L52.4809 47.8156C51.1884 45.5908 50.8007 42.9556 51.3978 40.4537C52.2694 36.9363 51.7452 33.2188 49.9348 30.0783Z" fill="#ECD979"/>
<path d="M53.2008 62.7679C50.5309 64.3584 47.0844 63.4091 45.5038 60.6471L43.6462 57.3989L53.3142 51.636L55.1718 54.8842C56.7523 57.6462 55.8707 61.171 53.2008 62.7679Z" fill="white"/>
<path d="M50.4134 64.0001C49.9005 63.9997 49.3897 63.9335 48.8937 63.8031C48.0994 63.5912 47.3558 63.2224 46.7068 62.7185C46.0578 62.2145 45.5167 61.5857 45.1155 60.8692L43.2579 57.6211C43.227 57.5691 43.2067 57.5116 43.1982 57.4518C43.1897 57.392 43.1932 57.3311 43.2084 57.2726C43.2236 57.2141 43.2503 57.1593 43.2869 57.1112C43.3235 57.0631 43.3693 57.0227 43.4217 56.9924L53.077 51.2273C53.1828 51.1665 53.3085 51.1499 53.4265 51.1813C53.5445 51.2128 53.6453 51.2896 53.7067 51.395L55.5643 54.6432C57.2666 57.6169 56.3073 61.433 53.4275 63.1493C52.5186 63.7005 51.4768 63.9946 50.4134 64.0001ZM44.2717 57.5624L45.9048 60.4187C46.2473 61.0289 46.7092 61.5641 47.2631 61.9925C47.817 62.4209 48.4514 62.7338 49.1288 62.9125C49.7713 63.0835 50.4418 63.1237 51.1002 63.0308C51.7586 62.938 52.3916 62.7138 52.9615 62.3718C55.4132 60.9049 56.2234 57.6525 54.7688 55.1105L53.1442 52.271L44.2717 57.5624Z" fill="black"/>
<path d="M26.8859 16.7839C26.8047 16.784 26.7248 16.7628 26.6545 16.7224C26.5841 16.6819 26.5256 16.6236 26.485 16.5534L19.7095 4.74877C19.6556 4.6434 19.6444 4.52138 19.6781 4.40796C19.7118 4.29454 19.7879 4.19841 19.8907 4.13945C19.9934 4.0805 20.1149 4.06322 20.23 4.09121C20.3452 4.11921 20.4451 4.19032 20.5092 4.28983L27.2847 16.0944C27.3151 16.1468 27.3348 16.2046 27.3427 16.2647C27.3506 16.3247 27.3465 16.3856 27.3307 16.4441C27.3149 16.5025 27.2877 16.5573 27.2506 16.6051C27.2136 16.653 27.1674 16.6931 27.1147 16.7231C27.0452 16.7633 26.9662 16.7843 26.8859 16.7839Z" fill="#ECD979"/>
<path d="M4.50864 60.5778C4.40685 60.5778 4.30794 60.5441 4.22728 60.4821C4.14663 60.4201 4.08877 60.3332 4.06267 60.235C4.03658 60.1367 4.04372 60.0327 4.083 59.9389C4.12228 59.8451 4.19149 59.767 4.27986 59.7165L19.6864 50.915C19.7924 50.8584 19.9164 50.8454 20.0319 50.8787C20.1475 50.9119 20.2454 50.9889 20.305 51.0931C20.3646 51.1974 20.3811 51.3207 20.3511 51.437C20.321 51.5532 20.2467 51.6531 20.144 51.7155L4.73744 60.5171C4.66758 60.5564 4.58884 60.5773 4.50864 60.5778Z" fill="#ECD979"/>
<path d="M59.6069 29.4979C59.5046 29.4986 59.4049 29.4653 59.3237 29.4031C59.2425 29.3409 59.1843 29.2535 59.1586 29.1546C59.1328 29.0557 59.1408 28.951 59.1813 28.8572C59.2219 28.7634 59.2926 28.6857 59.3823 28.6366L75.3157 19.7638C75.3688 19.7312 75.4279 19.7097 75.4895 19.7006C75.5511 19.6914 75.614 19.6948 75.6742 19.7106C75.7345 19.7263 75.7909 19.754 75.8402 19.7921C75.8894 19.8302 75.9304 19.8778 75.9608 19.9322C75.9911 19.9865 76.0101 20.0464 76.0166 20.1082C76.0232 20.1701 76.0171 20.2326 75.9988 20.292C75.9805 20.3515 75.9504 20.4066 75.9102 20.4541C75.87 20.5016 75.8205 20.5405 75.7649 20.5685L59.8315 29.4392C59.7629 29.4776 59.6856 29.4978 59.6069 29.4979Z" fill="#ECD979"/>
<path d="M15.4506 33.6555C15.4079 33.6554 15.3655 33.649 15.3247 33.6366L0.335851 29.416C0.218391 29.3827 0.119004 29.3041 0.0595653 29.1976C0.000126293 29.0911 -0.0144985 28.9654 0.0189026 28.8481C0.0523037 28.7309 0.130991 28.6316 0.237666 28.5723C0.344342 28.5129 0.470258 28.4983 0.587719 28.5317L15.5745 32.7523C15.6804 32.7834 15.7717 32.8515 15.8317 32.9441C15.8917 33.0367 15.9164 33.1477 15.9014 33.257C15.8864 33.3663 15.8327 33.4666 15.75 33.5397C15.6673 33.6128 15.5611 33.6539 15.4506 33.6555Z" fill="#ECD979"/>
<path d="M46.7863 16.7438C46.7444 16.7445 46.7027 16.7388 46.6625 16.7271C46.5449 16.6943 46.4452 16.6164 46.385 16.5103C46.3248 16.4043 46.3091 16.2788 46.3414 16.1613L50.7135 0.347772C50.7461 0.230222 50.8241 0.130403 50.9304 0.0702734C50.983 0.0405003 51.041 0.0213631 51.101 0.0139628C51.1611 0.00656252 51.222 0.0110443 51.2803 0.0271435C51.3386 0.0432427 51.3931 0.070647 51.4408 0.107795C51.4885 0.144942 51.5284 0.191103 51.5582 0.243644C51.588 0.296184 51.6072 0.354073 51.6146 0.414008C51.622 0.473943 51.6175 0.53475 51.6014 0.592955L47.2292 16.4065C47.2026 16.5033 47.1448 16.5888 47.0648 16.6498C46.9848 16.7107 46.887 16.7438 46.7863 16.7438Z" fill="#ECD979"/>
</g>
<defs>
<clipPath id="clip0_136_118">
<rect width="76" height="64" fill="white"/>
</clipPath>
</defs>
</svg>
